<svg width="535" height="590" viewBox="0 0 535 590" fill="none" xmlns="http://www.w3.org/2000/svg">
<path d="M224.994 273.305C199.876 273.305 175.322 265.856 154.437 251.902C133.552 237.947 117.274 218.112 107.662 194.906C98.0492 171.699 95.5342 146.164 100.434 121.528C105.335 96.8928 117.43 74.2636 135.192 56.5023C152.953 38.7411 175.582 26.6455 200.218 21.7452C224.853 16.8448 250.389 19.3599 273.595 28.9722C296.801 38.5845 316.636 54.8624 330.591 75.7475C344.546 96.6325 351.994 121.187 351.994 146.305C351.956 179.976 338.564 212.256 314.755 236.065C290.946 259.874 258.665 273.267 224.994 273.305ZM224.994 21.3049C200.272 21.3049 176.104 28.636 155.548 42.3712C134.992 56.1064 118.97 75.6287 109.509 98.4695C100.048 121.31 97.5729 146.444 102.396 170.691C107.219 194.939 119.124 217.212 136.606 234.693C154.087 252.175 176.36 264.08 200.608 268.903C224.856 273.726 249.989 271.251 272.83 261.79C295.67 252.329 315.193 236.307 328.928 215.751C342.663 195.195 349.994 171.028 349.994 146.305C349.957 113.164 336.775 81.3919 313.341 57.9579C289.907 34.524 258.135 21.3423 224.994 21.3049Z" fill="#F2F2F2"/>
<path d="M234.686 174.095H316.119C316.384 174.095 316.638 173.989 316.826 173.802C317.013 173.614 317.119 173.36 317.119 173.095C317.119 172.829 317.013 172.575 316.826 172.388C316.638 172.2 316.384 172.095 316.119 172.095H234.686C234.42 172.095 234.166 172.2 233.978 172.388C233.791 172.575 233.686 172.829 233.686 173.095C233.686 173.36 233.791 173.614 233.978 173.802C234.166 173.989 234.42 174.095 234.686 174.095Z" fill="white"/>
<path d="M336.408 171.095C329.611 171.102 323.094 173.806 318.288 178.612C313.482 183.419 310.778 189.935 310.77 196.732V305.457C310.778 312.254 313.482 318.771 318.288 323.577C323.094 328.383 329.611 331.087 336.408 331.095H505.133C511.93 331.087 518.446 328.383 523.253 323.577C528.059 318.771 530.763 312.254 530.77 305.457V196.732C530.763 189.935 528.059 183.419 523.253 178.612C518.446 173.806 511.93 171.102 505.133 171.095H336.408Z" fill="white"/>
<path d="M505.133 332.095H336.408C329.346 332.087 322.575 329.278 317.581 324.284C312.587 319.29 309.778 312.519 309.77 305.457V196.732C309.778 189.67 312.587 182.899 317.581 177.905C322.575 172.912 329.346 170.103 336.408 170.095H505.133C512.195 170.103 518.966 172.912 523.959 177.905C528.953 182.899 531.762 189.67 531.77 196.732V305.457C531.762 312.519 528.953 319.29 523.959 324.284C518.966 329.278 512.195 332.087 505.133 332.095ZM336.408 172.095C329.876 172.102 323.613 174.7 318.995 179.319C314.376 183.938 311.778 190.2 311.77 196.732V305.457C311.778 311.989 314.376 318.251 318.995 322.87C323.613 327.489 329.876 330.087 336.408 330.095H505.133C511.665 330.087 517.927 327.489 522.546 322.87C527.165 318.251 529.763 311.989 529.77 305.457V196.732C529.763 190.2 527.165 183.938 522.546 179.319C517.927 174.7 511.665 172.102 505.133 172.095H336.408Z" fill="white"/>
<path d="M231.793 164.734C229.271 165.172 227.019 166.577 225.517 168.65C224.014 170.723 223.38 173.301 223.75 175.834C223.833 176.348 223.958 176.854 224.125 177.347L173.819 221.683L192.452 234.735L236.912 182.944C238.903 182.095 240.557 180.611 241.615 178.723C242.674 176.835 243.078 174.649 242.764 172.507C242.573 171.291 242.145 170.123 241.504 169.072C240.862 168.02 240.02 167.105 239.024 166.379C238.029 165.653 236.901 165.131 235.704 164.841C234.507 164.551 233.264 164.5 232.047 164.69C231.962 164.704 231.878 164.718 231.793 164.734Z" fill="white"/>
<path d="M212.71 214.905C212.71 214.905 201.36 227.975 187.54 242.775C186.58 243.795 185.62 244.825 184.63 245.865C176.23 254.765 167.18 264.005 159.33 271.175C150.96 278.845 143.95 284.185 140.55 284.315C140.267 284.333 139.983 284.303 139.71 284.225C129.54 281.165 137.92 284.805 133.57 291.015C129.2 297.235 129.74 289.075 119.95 284.225C110.18 279.375 115.38 284.195 111.48 291.855C110.27 294.255 99.6502 293.765 85.6502 291.965C84.0702 278.615 81.7702 267.095 81.7702 267.095C81.7416 259.087 82.5595 251.1 84.2102 243.265C108.6 242.825 128.77 242.575 129.8 242.895C132.46 243.705 138.18 241.655 144.5 238.085C145.4 237.575 147.1 236.395 149.35 234.735C151.34 233.275 153.74 231.455 156.41 229.415C159.41 227.095 164.52 225.825 166.18 221.785C171 210.125 169.35 218.825 170.64 218.285C172.11 217.665 174.71 217.425 176.23 216.535C176.646 216.353 176.988 216.035 177.201 215.634C177.413 215.232 177.484 214.771 177.4 214.325C177.326 213.945 177.198 213.578 177.02 213.235C175.64 210.465 177.74 210.195 179.72 209.905C180.541 209.864 181.34 209.628 182.05 209.215C190 202.875 196.02 198.005 196.02 198.005L198.18 200.205L198.19 200.215L210.97 213.155L212.71 214.905Z" fill="white"/>
<path d="M201.808 587.867H75.4297C70.02 587.867 65.6187 582.311 65.6187 575.483V441.195C65.6187 434.366 70.0201 428.81 75.4297 428.81H201.808C207.217 428.81 211.619 434.366 211.619 441.195V575.483C211.619 582.311 207.217 587.867 201.808 587.867Z" fill="#F2F2F2"/>
<path d="M3.86829e-05 587.592C-0.0375072 587.949 0.0660494 588.306 0.288521 588.586C0.510993 588.867 0.834668 589.05 1.1901 589.095H533.48C533.819 589.015 534.121 588.823 534.337 588.551C534.553 588.278 534.67 587.94 534.67 587.592C534.67 587.245 534.553 586.907 534.337 586.634C534.121 586.362 533.819 586.17 533.48 586.09H1.19004C0.834622 586.135 0.510978 586.318 0.288521 586.599C0.0660645 586.879 -0.0374952 587.236 3.86829e-05 587.592Z" fill="#CCCCCC"/>
<path d="M289.565 569.244L302.306 569.243L308.368 520.095L289.562 520.096L289.565 569.244Z" fill="white"/>
<path d="M289.116 582.537L328.299 582.535V582.04C328.299 577.995 326.692 574.116 323.832 571.256C320.972 568.396 317.093 566.789 313.048 566.789L305.89 561.359L292.536 566.789L289.115 566.789L289.116 582.537Z" fill="white"/>
<path d="M210.422 563.385L222.687 566.837L241.843 521.171L223.74 516.075L210.422 563.385Z" fill="white"/>
<path d="M206.388 576.058L244.105 586.677L244.239 586.2C245.335 582.306 244.84 578.137 242.862 574.609C240.884 571.08 237.585 568.482 233.692 567.386L228.273 560.219L213.947 561.827L210.655 560.9L206.388 576.058Z" fill="white"/>
<path d="M177.77 354.095C177.77 354.095 173.69 353.688 184.15 357.308C195.47 361.238 212.65 360.728 229.1 366.628C234.18 368.448 239.33 370.308 244.44 372.168C245.47 372.538 246.5 372.918 247.53 373.288C254.18 375.718 260.72 378.148 266.9 380.468C267.77 380.798 268.63 381.128 269.48 381.448C269.5 381.458 269.52 381.458 269.53 381.468C289.68 389.128 305.53 395.688 308.15 398.308C310.95 401.108 312.11 420.028 312.43 443.408C313.01 486.738 310.72 545.398 310.72 545.398L287.15 545.309C287.15 545.309 287 544.788 286.71 543.818C286.19 542.028 285.22 538.699 283.93 534.349C278.57 516.179 267.78 480.168 261.82 463.678C260.14 459.018 258.84 455.918 258.15 455.218C254.15 451.118 258.15 449.308 262.15 446.708C266.15 444.108 262.15 443.308 259.21 439.908C256.27 436.508 260.31 428.848 260.31 428.848C260.31 428.848 257.65 428.778 253.41 428.668C247.15 428.508 237.41 428.268 227.66 428.028C227.65 428.038 227.65 428.038 227.65 428.028C223.98 427.938 220.31 427.848 216.83 427.769C214.13 427.699 211.54 427.639 209.14 427.579C201.95 427.419 196.51 427.309 195.15 427.309C190.71 427.309 194.16 427.308 191.48 423.798C191.069 423.274 190.625 422.776 190.15 422.309C189.478 421.559 188.742 420.87 187.95 420.249C187.39 419.989 188.15 421.599 187.73 423.689C187.501 424.821 186.965 425.869 186.18 426.719C182.21 431.129 170.03 426.368 170.03 426.368C149.99 436.389 133.55 435.669 120.89 430.979C111.796 427.474 103.639 421.909 97.0604 414.719C94.4564 411.98 92.1192 409 90.0804 405.819L88.4304 405.509C88.4304 405.509 86.2103 331.125 88.7703 326.095C92.7603 318.255 151.77 324.095 151.77 324.095L177.77 354.095Z" fill="white"/>
<path d="M287.686 53.0946H369.119C369.384 53.0946 369.638 52.9892 369.826 52.8017C370.013 52.6142 370.119 52.3598 370.119 52.0946C370.119 51.8294 370.013 51.575 369.826 51.3875C369.638 51.2 369.384 51.0946 369.119 51.0946H287.686C287.42 51.0946 287.166 51.2 286.978 51.3875C286.791 51.575 286.686 51.8294 286.686 52.0946C286.686 52.3598 286.791 52.6142 286.978 52.8017C287.166 52.9892 287.42 53.0946 287.686 53.0946Z" fill="white"/>
<path d="M397.937 132.622C381.426 110.661 371.883 86.1024 371.571 58.104C371.039 56.5952 371.127 54.937 371.816 53.4931C372.505 52.0493 373.739 50.9378 375.247 50.4024L431.524 30.4899C433.033 29.958 434.691 30.0463 436.135 30.7354C437.579 31.4245 438.69 32.6583 439.226 34.1659L465.592 108.684C466.124 110.192 466.036 111.851 465.347 113.295C464.657 114.738 463.424 115.85 461.916 116.385L405.639 136.298C404.13 136.83 402.472 136.741 401.028 136.052C399.584 135.363 398.472 134.129 397.937 132.622Z" fill="#E6E6E6"/>
<path d="M394.29 108.587C384.36 98.5466 380.109 80.639 377.339 60.6801C376.841 59.267 376.924 57.714 377.569 56.3618C378.215 55.0096 379.37 53.9687 380.782 53.4673L429.148 36.3542C430.561 35.856 432.114 35.9386 433.466 36.584C434.818 37.2294 435.859 38.3848 436.361 39.7967L459.823 106.107C460.321 107.521 460.239 109.074 459.593 110.426C458.948 111.778 457.792 112.819 456.38 113.32L426.419 123.922C420.124 126.141 413.207 125.772 407.184 122.898C401.16 120.023 396.523 114.876 394.29 108.587Z" fill="white"/>
<path d="M437.008 75.5186L399.333 88.9669C399.036 89.0729 398.721 89.1193 398.406 89.1036C398.091 89.0879 397.783 89.0104 397.498 88.8754C397.213 88.7404 396.958 88.5506 396.746 88.3169C396.535 88.0832 396.371 87.8101 396.265 87.5133C396.159 87.2164 396.113 86.9016 396.128 86.5868C396.144 86.272 396.222 85.9633 396.357 85.6785C396.492 85.3937 396.681 85.1382 396.915 84.9267C397.149 84.7152 397.422 84.5518 397.719 84.4458L435.394 70.9976C435.691 70.8916 436.006 70.8451 436.321 70.8608C436.636 70.8765 436.944 70.9541 437.229 71.0891C437.514 71.2241 437.769 71.4138 437.981 71.6475C438.192 71.8812 438.356 72.1543 438.462 72.4512C438.568 72.748 438.614 73.0629 438.599 73.3777C438.583 73.6925 438.505 74.0011 438.37 74.286C438.235 74.5708 438.046 74.8263 437.812 75.0378C437.578 75.2493 437.305 75.4127 437.008 75.5186Z" fill="white"/>
<path d="M403.196 73.6113L394.908 76.5699C394.308 76.7832 393.649 76.7498 393.074 76.477C392.499 76.2043 392.056 75.7146 391.842 75.1155C391.629 74.5163 391.661 73.8568 391.933 73.2818C392.206 72.7068 392.695 72.2633 393.294 72.0489L401.582 69.0902C402.182 68.8762 402.842 68.9092 403.417 69.1818C403.992 69.4544 404.436 69.9443 404.65 70.5439C404.864 71.1434 404.831 71.8034 404.558 72.3786C404.286 72.9539 403.796 73.3973 403.196 73.6113Z" fill="white"/>
<path d="M444.103 95.3944L406.427 108.843C406.13 108.949 405.816 108.995 405.501 108.979C405.186 108.964 404.877 108.886 404.592 108.751C404.308 108.616 404.052 108.426 403.841 108.193C403.629 107.959 403.466 107.686 403.36 107.389C403.254 107.092 403.207 106.777 403.223 106.463C403.239 106.148 403.316 105.839 403.451 105.554C403.586 105.269 403.776 105.014 404.01 104.802C404.244 104.591 404.517 104.428 404.813 104.322L442.489 90.8734C442.786 90.767 443.101 90.7203 443.416 90.7357C443.731 90.7512 444.04 90.8286 444.325 90.9635C444.61 91.0985 444.866 91.2883 445.078 91.5221C445.289 91.7559 445.453 92.0291 445.559 92.3262C445.665 92.6232 445.711 92.9383 445.695 93.2533C445.68 93.5683 445.602 93.8771 445.467 94.1621C445.331 94.447 445.141 94.7025 444.907 94.914C444.673 95.1254 444.4 95.2887 444.103 95.3944Z" fill="white"/>
<path d="M440.556 85.4565L402.88 98.9048C402.28 99.1188 401.62 99.0859 401.045 98.8133C400.47 98.5407 400.026 98.0507 399.812 97.4512C399.598 96.8516 399.631 96.1916 399.904 95.6164C400.177 95.0411 400.667 94.5977 401.266 94.3837L438.942 80.9354C439.541 80.7222 440.201 80.7556 440.775 81.0283C441.35 81.301 441.793 81.7908 442.007 82.3899C442.221 82.989 442.188 83.6486 441.916 84.2236C441.644 84.7986 441.154 85.242 440.556 85.4565Z" fill="white"/>
<path d="M374.77 66.0946C380.293 66.0946 384.77 61.6175 384.77 56.0946C384.77 50.5718 380.293 46.0946 374.77 46.0946C369.247 46.0946 364.77 50.5718 364.77 56.0946C364.77 61.6175 369.247 66.0946 374.77 66.0946Z" fill="white"/>
<path d="M193.855 34.0946H112.422C112.157 34.0946 111.902 33.9892 111.715 33.8017C111.527 33.6142 111.422 33.3598 111.422 33.0946C111.422 32.8294 111.527 32.575 111.715 32.3875C111.902 32.2 112.157 32.0946 112.422 32.0946H193.855C194.12 32.0946 194.374 32.2 194.562 32.3875C194.75 32.575 194.855 32.8294 194.855 33.0946C194.855 33.3598 194.75 33.6142 194.562 33.8017C194.374 33.9892 194.12 34.0946 193.855 34.0946Z" fill="white"/>
<path d="M7.11547 69.5661C14.1878 43.0165 27.6065 20.3424 49.4319 2.80228C50.2899 1.45196 51.6485 0.497125 53.2096 0.14724C54.7708 -0.202645 56.407 0.0810001 57.7592 0.935951L108.181 32.8942C109.531 33.7523 110.486 35.1109 110.836 36.672C111.186 38.2331 110.902 39.8693 110.047 41.2216L67.7306 107.985C66.8726 109.336 65.514 110.291 63.9529 110.64C62.3917 110.99 60.7556 110.707 59.4033 109.852L8.9818 77.8934C7.63147 77.0354 6.67663 75.6768 6.32674 74.1157C5.97686 72.5545 6.26051 70.9184 7.11547 69.5661Z" fill="#E6E6E6"/>
<path d="M23.7644 51.852C25.5266 37.8409 36.984 23.4368 50.9693 8.9302C51.7728 7.66556 53.0452 6.77128 54.5073 6.4436C55.9693 6.11592 57.5017 6.38159 58.7681 7.18231L102.101 34.6478C103.366 35.4513 104.26 36.7237 104.588 38.1858C104.916 39.6479 104.65 41.1802 103.849 42.4467L66.1934 101.857C65.3898 103.122 64.1173 104.016 62.6552 104.344C61.1932 104.672 59.6608 104.406 58.3943 103.605L31.5504 86.5909C25.9173 83.0116 21.934 77.3439 20.4743 70.8314C19.0147 64.3189 20.1979 57.4933 23.7644 51.852Z" fill="white"/>
<path d="M76.1566 65.0208L42.3088 43.6986C41.7709 43.359 41.3899 42.8197 41.2493 42.1993C41.1088 41.5789 41.2203 40.928 41.5594 40.3897C41.8985 39.8515 42.4373 39.4699 43.0576 39.3287C43.6779 39.1875 44.3289 39.2984 44.8675 39.6369L78.7152 60.9591C78.9823 61.1269 79.2136 61.3457 79.3961 61.603C79.5785 61.8603 79.7084 62.1511 79.7784 62.4586C79.8484 62.7662 79.8571 63.0845 79.804 63.3954C79.7509 63.7063 79.637 64.0037 79.4689 64.2706C79.3008 64.5375 79.0817 64.7686 78.8242 64.9507C78.5667 65.1329 78.2759 65.2625 77.9682 65.3322C77.6606 65.4019 77.3423 65.4102 77.0314 65.3568C76.7206 65.3034 76.4233 65.1892 76.1566 65.0208Z" fill="white"/>
<path d="M56.7713 37.2521L49.3248 32.5612C49.0577 32.3933 48.8264 32.1745 48.6439 31.9172C48.4615 31.6599 48.3316 31.3692 48.2616 31.0616C48.1916 30.7541 48.1829 30.4357 48.236 30.1248C48.2892 29.8139 48.403 29.5165 48.5711 29.2497C48.7392 28.9828 48.9583 28.7517 49.2158 28.5695C49.4733 28.3874 49.7642 28.2577 50.0718 28.1881C50.3794 28.1184 50.6977 28.11 51.0086 28.1635C51.3195 28.2169 51.6167 28.3311 51.8834 28.4995L59.3299 33.1903C59.597 33.3582 59.8283 33.577 60.0107 33.8343C60.1932 34.0916 60.3231 34.3824 60.3931 34.6899C60.4631 34.9975 60.4718 35.3158 60.4187 35.6267C60.3656 35.9376 60.2517 36.235 60.0836 36.5019C59.9154 36.7687 59.6964 36.9998 59.4389 37.182C59.1814 37.3642 58.8905 37.4938 58.5829 37.5635C58.2753 37.6331 57.9569 37.6415 57.6461 37.5881C57.3352 37.5346 57.038 37.4205 56.7713 37.2521Z" fill="white"/>
<path d="M64.908 82.8772L31.0603 61.5551C30.7932 61.3872 30.5619 61.1684 30.3795 60.9111C30.197 60.6538 30.0671 60.363 29.9971 60.0555C29.9271 59.748 29.9184 59.4296 29.9715 59.1187C30.0246 58.8078 30.1385 58.5104 30.3066 58.2435C30.4748 57.9767 30.6938 57.7455 30.9513 57.5634C31.2088 57.3812 31.4997 57.2516 31.8073 57.1819C32.1149 57.1123 32.4333 57.1039 32.7441 57.1573C33.055 57.2108 33.3522 57.3249 33.6189 57.4933L67.4667 78.8155C68.0046 79.1551 68.3857 79.6944 68.5262 80.3148C68.6667 80.9353 68.5552 81.5861 68.2161 82.1244C67.8771 82.6626 67.3382 83.0443 66.7179 83.1854C66.0976 83.3266 65.4466 83.2157 64.908 82.8772Z" fill="white"/>
<path d="M70.5323 73.949L36.6845 52.6268C36.4175 52.459 36.1861 52.2402 36.0037 51.9829C35.8213 51.7256 35.6914 51.4348 35.6214 51.1273C35.5514 50.8197 35.5427 50.5014 35.5958 50.1905C35.6489 49.8796 35.7628 49.5822 35.9309 49.3153C36.099 49.0484 36.3181 48.8173 36.5756 48.6352C36.8331 48.453 37.124 48.3234 37.4316 48.2537C37.7392 48.184 38.0575 48.1757 38.3684 48.2291C38.6792 48.2825 38.9765 48.3967 39.2432 48.5651L73.091 69.8873C73.6297 70.2266 74.0114 70.766 74.1523 71.3867C74.2933 72.0075 74.1819 72.6589 73.8426 73.1975C73.6746 73.4642 73.4557 73.6952 73.1984 73.8773C72.9411 74.0594 72.6505 74.189 72.3431 74.2588C71.7223 74.3998 71.0709 74.2883 70.5323 73.949Z" fill="white"/>
<path d="M106.77 47.0946C112.293 47.0946 116.77 42.6175 116.77 37.0946C116.77 31.5718 112.293 27.0946 106.77 27.0946C101.247 27.0946 96.7702 31.5718 96.7702 37.0946C96.7702 42.6175 101.247 47.0946 106.77 47.0946Z" fill="white"/>
<path d="M321.77 187.095C327.293 187.095 331.77 182.617 331.77 177.095C331.77 171.572 327.293 167.095 321.77 167.095C316.247 167.095 311.77 171.572 311.77 177.095C311.77 182.617 316.247 187.095 321.77 187.095Z" fill="white"/>
<path d="M274.959 426.977C270.789 449.697 253.119 502.947 242.439 534.117C237.569 548.357 237.169 542.997 237.169 542.997L214.699 535.897C214.699 535.897 212.669 499.677 212.019 472.507C211.799 463.747 211.419 457.487 210.789 456.247C208.189 451.147 212.539 450.607 217.129 449.317C221.729 448.027 218.139 446.087 216.349 441.947C215.139 439.187 217.519 435.517 219.209 433.417C219.674 432.827 220.172 432.263 220.699 431.727C220.699 431.727 208.999 427.747 195.769 423.257C195.759 423.267 195.759 423.257 195.759 423.257C194.429 422.807 193.089 422.357 191.749 421.897C196.409 420.217 199.509 418.917 200.209 418.227C204.309 414.227 206.119 418.227 208.719 422.227C211.319 426.227 212.119 422.227 215.519 419.287C218.919 416.347 226.579 420.387 226.579 420.387C226.579 420.387 226.649 417.727 226.759 413.487C226.919 407.227 227.159 397.487 227.399 387.737C227.389 387.727 227.389 387.727 227.399 387.727C227.489 384.057 227.579 380.387 227.659 376.907C234.709 382.307 241.549 387.607 247.749 392.507C247.759 392.517 247.779 392.527 247.779 392.547C262.689 404.327 273.879 413.787 275.449 416.787C276.159 418.147 275.919 421.757 274.959 426.977Z" fill="white"/>
<path d="M178.77 342.095L152.89 358.895L84.7702 403.095C84.7702 403.095 76.3503 385.935 84.0603 371.015C85.0525 369.127 85.8596 367.148 86.4703 365.105C89.5903 354.405 83.5903 349.765 83.5903 349.765C83.5903 349.765 73.5903 340.035 83.1803 331.065C85.1503 329.225 86.2503 325.455 86.7503 320.615C87.5903 312.655 86.8202 301.815 85.6502 291.965C84.0702 278.615 81.7702 267.095 81.7702 267.095C81.7416 259.087 82.5595 251.1 84.2102 243.265C86.0402 234.825 88.9802 226.805 93.3302 220.145C94.9256 217.673 96.7648 215.369 98.8203 213.265C101.697 210.316 105.063 207.89 108.77 206.095C114.33 203.415 123.86 205.025 132.26 206.195C133.95 206.425 135.59 206.645 137.14 206.805C138.677 206.983 140.223 207.08 141.77 207.095L148.73 232.495L149.35 234.735L159.33 271.175L178.71 341.865L178.77 342.095Z" fill="white"/>
<path d="M123.018 198.35C139.783 198.35 153.374 184.759 153.374 167.995C153.374 151.23 139.783 137.639 123.018 137.639C106.254 137.639 92.6631 151.23 92.6631 167.995C92.6631 184.759 106.254 198.35 123.018 198.35Z" fill="white"/>
<path d="M117.332 193.086L114.86 200.992C109.377 198.286 103.821 195.53 99.2553 191.463C94.69 187.395 91.1591 181.782 90.9429 175.672C90.8313 172.516 91.5955 169.332 91.0711 166.218C90.4786 162.7 88.3068 159.649 87.3127 156.222C86.3827 152.633 86.7328 148.832 88.3027 145.472C89.8726 142.113 92.5642 139.406 95.9144 137.817C100.946 135.606 106.7 136.227 112.17 135.692C117.64 135.158 123.742 132.683 125.282 127.407C125.858 125.434 125.792 123.108 127.554 121.817C128.44 121.225 129.513 120.981 130.567 121.134C131.621 121.286 132.582 121.824 133.264 122.642C135.84 125.567 135.206 129.418 134.531 132.92C138.078 132.457 141.49 131.257 144.547 129.399C147.604 127.54 150.239 125.064 152.283 122.127C153.242 123.026 154.014 124.106 154.554 125.305C155.094 126.504 155.391 127.797 155.427 129.112C155.464 130.426 155.24 131.734 154.767 132.961C154.295 134.188 153.585 135.31 152.676 136.26C154.401 136.261 156.076 135.681 157.431 134.612C158.785 133.544 159.74 132.051 160.141 130.373C162.236 133.267 164.386 136.284 165.06 139.792C165.733 143.3 164.483 147.449 161.266 149.002C159.624 149.651 157.862 149.939 156.098 149.848L142.611 150.104C138.6 150.18 134.776 151.814 131.948 154.659C129.12 157.504 127.51 161.338 127.458 165.349C123.534 164.972 119.493 164.603 115.782 166.256C114.054 166.983 112.597 168.235 111.618 169.834C109.165 174.047 111.598 178.425 113.754 182.256C115.598 185.531 117.345 189.475 115.815 192.908" fill="white"/>
<path d="M255.902 501.298L199.624 481.385C198.117 480.85 196.883 479.738 196.194 478.295C195.505 476.851 195.417 475.192 195.949 473.684L222.315 399.166C222.85 397.658 223.962 396.425 225.406 395.735C226.849 395.046 228.508 394.958 230.017 395.49L286.294 415.402C287.802 415.938 289.035 417.049 289.724 418.493C290.414 419.937 290.502 421.595 289.97 423.104C289.657 451.102 280.114 475.661 263.604 497.622C263.068 499.129 261.957 500.363 260.513 501.052C259.069 501.741 257.411 501.83 255.902 501.298Z" fill="#E6E6E6"/>
<path d="M235.122 488.922L205.16 478.32C203.748 477.819 202.593 476.778 201.947 475.426C201.302 474.074 201.219 472.521 201.717 471.107L225.18 404.797C225.681 403.385 226.722 402.229 228.074 401.584C229.427 400.939 230.98 400.856 232.393 401.354L280.759 418.467C282.17 418.969 283.326 420.01 283.971 421.362C284.617 422.714 284.699 424.267 284.201 425.68C281.431 445.639 277.181 463.547 267.25 473.587C265.017 479.876 260.38 485.023 254.357 487.898C248.334 490.773 241.416 491.141 235.122 488.922Z" fill="white"/>
<path d="M223.079 437.451C223.293 436.852 223.737 436.363 224.312 436.09C224.887 435.818 225.547 435.784 226.146 435.998L263.822 449.446C264.119 449.552 264.392 449.715 264.626 449.926C264.86 450.138 265.05 450.393 265.186 450.678C265.321 450.963 265.399 451.272 265.414 451.587C265.43 451.902 265.384 452.217 265.278 452.514C265.172 452.811 265.008 453.084 264.796 453.318C264.585 453.552 264.329 453.742 264.044 453.877C263.759 454.012 263.45 454.089 263.135 454.105C262.82 454.12 262.505 454.073 262.208 453.967L224.532 440.519C223.933 440.304 223.444 439.861 223.171 439.285C222.899 438.71 222.865 438.051 223.079 437.451Z" fill="white"/>
<path d="M256.891 435.544C257.105 434.945 257.549 434.455 258.124 434.183C258.699 433.91 259.359 433.877 259.958 434.09L268.247 437.049C268.544 437.155 268.817 437.318 269.05 437.53C269.284 437.741 269.474 437.997 269.609 438.282C269.744 438.566 269.821 438.875 269.837 439.19C269.853 439.505 269.806 439.819 269.7 440.116C269.594 440.413 269.431 440.686 269.22 440.92C269.008 441.154 268.753 441.343 268.468 441.478C268.183 441.613 267.874 441.691 267.559 441.707C267.245 441.722 266.93 441.676 266.633 441.57L258.344 438.611C257.745 438.397 257.256 437.953 256.983 437.378C256.711 436.803 256.677 436.143 256.891 435.544Z" fill="white"/>
<path d="M215.984 457.327C216.199 456.728 216.642 456.238 217.217 455.966C217.792 455.693 218.452 455.66 219.051 455.873L256.727 469.322C257.024 469.427 257.298 469.591 257.532 469.802C257.766 470.014 257.956 470.269 258.091 470.554C258.226 470.839 258.304 471.148 258.32 471.463C258.335 471.778 258.289 472.093 258.183 472.39C258.077 472.687 257.913 472.96 257.702 473.194C257.49 473.428 257.234 473.618 256.949 473.753C256.664 473.887 256.355 473.965 256.04 473.98C255.725 473.996 255.41 473.949 255.113 473.843L217.438 460.394C216.839 460.18 216.349 459.736 216.077 459.161C215.804 458.586 215.771 457.927 215.984 457.327Z" fill="white"/>
<path d="M219.531 447.389C219.746 446.79 220.189 446.301 220.764 446.028C221.34 445.756 221.999 445.722 222.599 445.935L260.274 459.384C260.572 459.489 260.845 459.653 261.079 459.864C261.313 460.076 261.503 460.331 261.638 460.616C261.773 460.901 261.851 461.21 261.867 461.525C261.883 461.84 261.836 462.155 261.73 462.452C261.624 462.749 261.461 463.022 261.249 463.256C261.037 463.49 260.782 463.68 260.497 463.815C260.211 463.95 259.903 464.027 259.588 464.042C259.273 464.058 258.958 464.011 258.661 463.905L220.985 450.456C220.386 450.242 219.896 449.798 219.624 449.223C219.351 448.648 219.318 447.989 219.531 447.389Z" fill="white"/>
<path d="M238.842 396.574C238.122 394.118 236.471 392.039 234.241 390.781C232.011 389.523 229.378 389.185 226.903 389.838C226.402 389.979 225.913 390.161 225.442 390.382L175.7 345.415L164.84 365.406L221.328 403.72C222.397 405.603 224.059 407.078 226.054 407.916C228.05 408.754 230.267 408.908 232.36 408.354C233.547 408.027 234.659 407.47 235.631 406.713C236.603 405.957 237.417 405.016 238.025 403.945C238.634 402.875 239.026 401.694 239.178 400.472C239.331 399.25 239.241 398.009 238.914 396.822C238.891 396.739 238.867 396.656 238.842 396.574Z" fill="white"/>
<path d="M201.73 364.795L199.79 367.195L188.37 381.365L186.83 383.285C186.83 383.285 170.52 372.085 152.89 358.895C131.73 343.045 108.67 324.315 109.7 318.605C111.59 308.155 108.92 316.885 102.25 313.265C95.5903 309.635 103.75 309.245 107.46 298.975C111.18 288.715 106.98 294.425 98.9303 291.425C93.5603 289.425 96.3703 243.545 98.8203 213.265C101.697 210.316 105.063 207.89 108.77 206.095C115.44 202.875 127.85 205.845 137.14 206.805C142.4 245.575 149.99 302.285 149.65 304.075C149.13 306.805 151.83 312.255 156.09 318.135C158.09 320.915 168.4 331.485 178.71 341.865C190.21 353.445 201.73 364.795 201.73 364.795Z" fill="white"/>
<path d="M446.911 222.067H341.034C340.734 222.067 340.436 222.009 340.159 221.894C339.881 221.78 339.629 221.612 339.416 221.4C339.204 221.188 339.035 220.936 338.92 220.658C338.805 220.381 338.746 220.084 338.746 219.783C338.746 219.483 338.805 219.186 338.92 218.909C339.035 218.631 339.204 218.379 339.416 218.167C339.629 217.955 339.881 217.787 340.159 217.673C340.436 217.558 340.734 217.5 341.034 217.5H446.911C447.515 217.501 448.095 217.743 448.522 218.171C448.949 218.599 449.189 219.179 449.189 219.783C449.189 220.388 448.949 220.968 448.522 221.396C448.095 221.824 447.515 222.065 446.911 222.067Z" fill="white"/>
<path d="M500.507 242.941H341.034C340.734 242.941 340.436 242.883 340.159 242.768C339.881 242.654 339.629 242.486 339.416 242.274C339.204 242.062 339.035 241.81 338.92 241.532C338.805 241.255 338.746 240.958 338.746 240.658C338.746 240.357 338.805 240.06 338.92 239.783C339.035 239.505 339.204 239.253 339.416 239.041C339.629 238.829 339.881 238.661 340.159 238.547C340.436 238.432 340.734 238.374 341.034 238.374H500.507C501.112 238.376 501.691 238.617 502.119 239.045C502.546 239.473 502.786 240.053 502.786 240.658C502.786 241.262 502.546 241.842 502.119 242.27C501.691 242.698 501.112 242.94 500.507 242.941Z" fill="#F2F2F2"/>
<path d="M500.51 259.245H341.03C340.424 259.245 339.843 259.486 339.414 259.914C338.986 260.343 338.745 260.924 338.745 261.53C338.745 262.136 338.986 262.717 339.414 263.146C339.843 263.574 340.424 263.815 341.03 263.815H500.51C501.116 263.815 501.697 263.574 502.126 263.146C502.554 262.717 502.795 262.136 502.795 261.53C502.795 260.924 502.554 260.343 502.126 259.914C501.697 259.486 501.116 259.245 500.51 259.245Z" fill="#F2F2F2"/>
<path d="M500.507 284.689H341.034C340.734 284.69 340.436 284.631 340.159 284.517C339.881 284.402 339.629 284.234 339.416 284.022C339.204 283.81 339.035 283.558 338.92 283.281C338.805 283.003 338.746 282.706 338.746 282.406C338.746 282.106 338.805 281.808 338.92 281.531C339.035 281.254 339.204 281.002 339.416 280.79C339.629 280.578 339.881 280.409 340.159 280.295C340.436 280.181 340.734 280.122 341.034 280.123H500.507C501.112 280.124 501.691 280.365 502.119 280.793C502.546 281.221 502.786 281.801 502.786 282.406C502.786 283.011 502.546 283.591 502.119 284.019C501.691 284.447 501.112 284.688 500.507 284.689Z" fill="#F2F2F2"/>
</svg>
